<svg xmlns="http://www.w3.org/2000/svg" width="25" height="25" viewBox="0 0 25 25"><g fill="#fff" transform="translate(4.482 -1032.309)"><g transform="translate(-29.027 1016.4)"><circle cx="37.045" cy="28.409" r="12.5" fill="#50b748" fill-rule="evenodd"/></g><path fill="#10a711" style="line-height:normal;text-indent:0;text-align:start;text-decoration-line:none;text-decoration-style:solid;text-decoration-color:#000;text-transform:none;block-progression:tb;isolation:auto;mix-blend-mode:normal" d="M 14.871094 24.767578 A 12.5 12.5 0 0 0 14.982422 24.75 A 12.5 12.5 0 0 0 16.193359 24.441406 A 12.5 12.5 0 0 0 17.367188 24.013672 A 12.5 12.5 0 0 0 18.492188 23.470703 A 12.5 12.5 0 0 0 19.558594 22.816406 A 12.5 12.5 0 0 0 20.552734 22.060547 A 12.5 12.5 0 0 0 21.466797 21.208984 A 12.5 12.5 0 0 0 22.291016 20.269531 A 12.5 12.5 0 0 0 23.017578 19.253906 A 12.5 12.5 0 0 0 23.640625 18.169922 A 12.5 12.5 0 0 0 24.150391 17.029297 A 12.5 12.5 0 0 0 24.544922 15.84375 A 12.5 12.5 0 0 0 24.763672 14.867188 L 17.447266 7.5527344 C 16.179776 6.2852344 14.430027 5.5 12.5 5.5 C 8.6399291 5.5 5.5 8.64 5.5 12.5 C 5.5 13.9475 5.9417692 15.292773 6.6972656 16.410156 C 6.6972656 16.410156 6.6972656 16.412109 6.6972656 16.412109 C 6.8229292 16.597877 6.9571748 16.776696 7.0996094 16.949219 C 7.0996094 16.949219 7.0996094 16.951172 7.0996094 16.951172 C 7.2421046 17.123696 7.3946384 17.289168 7.5527344 17.447266 L 14.871094 24.767578 z " color="#000" font-family="sans-serif" font-weight="400" transform="translate(-4.482 1032.309)" white-space="normal"/><path d="M 8,1 C 4.1399291,1 1,4.14 1,8 c 0,3.8601 3.1399291,7 7,7 3.860071,0 7,-3.1399 7,-7 C 15,4.14 11.860071,1 8,1 Z m 0,1 c 3.319631,0 6,2.6804 6,6 0,3.3197 -2.680369,6 -6,6 C 4.6803692,14 2,11.3197 2,8 2,4.6804 4.6803692,2 8,2 Z M 11.146484,5.1464844 6.5,9.7910156 4.8554688,8.1464844 4.1464844,8.8535156 6.5,11.207031 11.855469,5.8535156 11.146484,5.1464844 Z" color="#000" font-family="sans-serif" font-weight="400" overflow="visible" transform="translate(.018 1036.809)" white-space="normal" style="line-height:normal;text-indent:0;text-align:start;text-decoration-line:none;text-decoration-style:solid;text-decoration-color:#000;text-transform:none;block-progression:tb;isolation:auto;mix-blend-mode:normal"/></g></svg>