<svg xmlns="http://www.w3.org/2000/svg" width="26" height="26" viewBox="0 0 26 26"><g fill="#fff" transform="translate(5 -1031.362)"><g fill="#ef4c45" transform="matrix(1.04 0 0 1.04 -30.527 1014.817)"><circle cx="37.045" cy="28.409" r="12.5" fill-rule="evenodd"/></g><path fill="#df2209" fill-rule="evenodd" style="line-height:normal;text-indent:0;text-align:start;text-decoration-line:none;text-decoration-style:solid;text-decoration-color:#000;text-transform:none;block-progression:tb;isolation:auto;mix-blend-mode:normal" d="M 15.785156 25.6875 A 12.999989 12.999989 0 0 0 16.841797 25.419922 A 12.999989 12.999989 0 0 0 18.0625 24.974609 A 12.999989 12.999989 0 0 0 19.232422 24.408203 A 12.999989 12.999989 0 0 0 20.339844 23.728516 A 12.999989 12.999989 0 0 0 21.375 22.943359 A 12.999989 12.999989 0 0 0 22.326172 22.056641 A 12.999989 12.999989 0 0 0 23.183594 21.080078 A 12.999989 12.999989 0 0 0 23.939453 20.023438 A 12.999989 12.999989 0 0 0 24.585938 18.896484 A 12.999989 12.999989 0 0 0 25.117188 17.710938 A 12.999989 12.999989 0 0 0 25.525391 16.476562 A 12.999989 12.999989 0 0 0 25.681641 15.779297 L 17.951172 8.0488281 C 16.585812 6.6835281 14.793093 6 13 6 C 11.206907 6 9.4141845 6.6835281 8.0488281 8.0488281 C 5.3181305 10.779628 5.3181305 15.220472 8.0488281 17.951172 L 15.785156 25.6875 z " color="#000" font-family="sans-serif" font-weight="400" transform="translate(-5 1031.362)" white-space="normal"/><path fill-rule="evenodd" style="line-height:normal;text-indent:0;text-align:start;text-decoration-line:none;text-decoration-style:solid;text-decoration-color:#000;text-transform:none;block-progression:tb;isolation:auto;mix-blend-mode:normal" d="M 8,1 C 6.2069068,1 4.4141845,1.6834924 3.0488281,3.0488281 c -2.73069768,2.7307781 -2.73069768,7.1716719 0,9.9023439 2.7307128,2.730778 7.1716309,2.730778 9.9023439,0 2.730713,-2.730672 2.730705,-7.1715658 0,-9.9023439 C 11.585812,1.6834924 9.7930932,1 8,1 Z m 0,0.9941406 c 1.5351591,0 3.069855,0.5874853 4.244141,1.7617188 2.348549,2.3485737 2.348564,6.1397075 0,8.4882816 -2.3485645,2.348573 -6.1397174,2.348573 -8.4882816,0 -2.3485492,-2.3485741 -2.3485568,-6.1397079 0,-8.4882816 C 4.9301415,2.5816259 6.4648409,1.9941406 8,1.9941406 Z m 2.453125,3.0273438 a 0.50005001,0.50005001 0 0 0 -0.34375,0.1523437 L 7.9960938,7.2949219 5.875,5.1796875 A 0.50005001,0.50005001 0 0 0 5.515625,5.03125 0.50005001,0.50005001 0 0 0 5.1699219,5.8886719 L 7.2910156,8.0039062 5.1757812,10.125 a 0.50005001,0.50005001 0 1 0 0.7070313,0.707031 L 7.9980469,8.7089844 10.119141,10.824219 a 0.50005001,0.50005001 0 1 0 0.707031,-0.707031 L 8.7050781,8.0019531 10.818359,5.8808594 a 0.50005001,0.50005001 0 0 0 -0.365234,-0.859375 z" color="#000" font-family="sans-serif" font-weight="400" overflow="visible" transform="translate(0 1036.363)" white-space="normal"/></g></svg>